<svg version="1.1" id="Layer_1" xmlns="http://www.w3.org/2000/svg" xmlns:xlink="http://www.w3.org/1999/xlink" x="0px" y="0px"
	 width="100%" viewBox="0 0 837 835" enable-background="new 0 0 837 835" xml:space="preserve">
<path fill="#000000" opacity="1.000000" stroke="none" 
	d="
M838.000000,284.000000 
	C838.000000,468.333252 838.000000,652.166504 838.000000,835.999817 
	C559.000183,835.999878 280.000397,835.999878 1.000435,835.999939 
	C1.000290,557.666992 1.000290,279.333954 1.000145,1.000696 
	C279.999573,1.000464 558.999146,1.000464 837.999390,1.000232 
	C838.000000,95.166664 838.000000,189.333328 838.000000,284.000000 
M680.882263,227.982193 
	C691.232727,227.929062 701.583191,227.875931 712.870911,227.958786 
	C730.847351,227.978058 748.823730,227.996872 766.825012,227.952515 
	C766.825012,223.990631 766.825012,221.519836 766.973999,218.249435 
	C766.930359,217.168533 766.886719,216.087616 766.997009,214.080002 
	C766.949646,195.057571 766.902344,176.035141 766.993713,156.337433 
	C766.947327,155.882584 766.900940,155.427750 766.971619,154.497223 
	C766.971619,154.497223 766.853943,154.021683 766.995056,153.167007 
	C766.946594,151.438293 766.898132,149.709564 766.964539,147.504623 
	C766.964539,147.504623 766.842712,147.030121 766.989380,146.099182 
	C766.939026,123.390228 766.888672,100.681267 766.744629,77.268959 
	C765.483276,75.922318 764.221924,74.575676 762.093445,73.072121 
	C759.750916,73.151695 757.408447,73.231262 754.217163,73.170959 
	C752.787354,73.212143 751.357605,73.253326 749.023743,73.103630 
	C743.687805,73.162613 738.351868,73.221596 732.230042,73.135086 
	C731.167908,73.173553 730.105713,73.212013 728.114929,73.066734 
	C708.710693,73.141609 689.306519,73.216484 669.098816,73.163437 
	C667.745850,73.202965 666.392944,73.242500 664.114807,73.078186 
	C636.750793,73.144493 609.386780,73.210808 581.350525,73.129364 
	C580.895813,73.171783 580.441101,73.214211 579.208191,73.084404 
	C577.838684,73.370583 576.469238,73.656761 574.999207,74.882683 
	C574.998779,86.854507 574.983459,98.826363 575.000793,110.798157 
	C575.049988,144.880310 575.112549,178.962448 575.028625,213.956284 
	C575.026978,216.619904 575.262207,219.309784 574.970520,221.941254 
	C574.479309,226.372330 576.724121,227.994293 580.666565,227.989410 
	C605.136230,227.959076 629.605896,227.885712 654.990662,227.969055 
	C663.310669,227.920334 671.630737,227.871597 680.882263,227.982193 
M536.978821,346.091675 
	C536.928894,332.053925 536.878967,318.016174 536.970947,303.057159 
	C536.645508,295.058960 536.314453,287.060974 535.998474,279.062408 
	C535.919128,277.053162 535.888184,275.041962 535.980896,272.394836 
	C535.680725,271.882568 535.380554,271.370300 535.013794,270.083160 
	C532.656860,269.491119 530.299927,268.899078 527.170837,268.172638 
	C526.130127,268.214325 525.089355,268.256012 523.126221,268.089172 
	C475.399475,268.079468 427.672699,268.063049 379.945953,268.071320 
	C375.630402,268.072052 371.314880,268.231720 366.341614,268.182159 
	C365.898499,268.227142 365.455353,268.272156 364.093201,268.106628 
	C353.062958,268.175903 342.032745,268.245148 330.135986,268.181000 
	C328.094177,268.222382 326.052399,268.263794 323.246979,268.098724 
	C321.805389,268.369263 320.363800,268.639771 318.180328,269.268585 
	C317.793640,270.947632 317.074432,272.625763 317.069794,274.305847 
	C316.992096,302.433868 316.972260,330.562195 317.003876,358.690369 
	C317.038452,389.476807 317.138916,420.263214 317.060822,451.967773 
	C317.084930,484.635101 317.109039,517.302429 317.000336,550.836121 
	C317.273041,553.676575 315.726868,557.812988 320.467346,558.010132 
	C332.669830,558.517822 344.889954,558.600769 358.014008,558.984192 
	C374.973572,558.940552 391.933167,558.896973 409.832855,559.005249 
	C444.543579,558.995056 479.254303,558.982239 513.965027,558.977722 
	C518.947449,558.977051 523.954285,559.308960 528.900574,558.896545 
	C530.948792,558.725769 532.867310,557.000610 535.300903,555.270081 
	C535.874023,554.300964 536.944763,553.333069 536.947021,552.362610 
	C536.995483,531.557251 536.924194,510.751617 536.984985,489.024200 
	C536.989990,474.572784 537.016541,460.121307 536.995422,445.669922 
	C536.953735,417.103271 536.885681,388.536682 536.971008,359.129089 
	C536.592957,355.764008 536.214905,352.398956 535.996338,348.594879 
	C535.996338,348.594879 536.036560,348.129517 536.535400,347.936035 
	C536.633545,347.631073 536.731689,347.326080 536.978821,346.091675 
M536.957275,196.127136 
	C536.911621,170.096893 536.866028,144.066635 536.976868,117.108742 
	C536.293152,103.132622 535.615540,89.156189 534.895447,75.181953 
	C534.874329,74.773140 534.403992,74.387482 533.836426,73.323669 
	C532.893066,73.305656 531.949646,73.287636 530.154419,73.152542 
	C528.437195,73.191696 526.719910,73.230850 524.087097,73.059464 
	C517.713745,73.136856 511.340393,73.214256 504.330688,73.185638 
	C503.902557,73.213791 503.474426,73.241936 502.183990,73.036308 
	C500.110046,73.105942 498.036133,73.175575 495.121490,73.142380 
	C493.429321,73.177414 491.737183,73.212456 489.141052,73.035439 
	C485.748871,73.106201 482.356689,73.176971 478.183472,73.143471 
	C477.135010,73.176895 476.086517,73.210320 474.116974,73.027641 
	C467.072906,73.103241 460.028839,73.178841 452.248962,73.158798 
	C451.509613,73.194679 450.770233,73.230560 449.111877,73.047005 
	C440.402039,73.120277 431.692200,73.193550 422.053162,73.159927 
	C413.377045,73.191475 404.700897,73.223022 395.153839,73.031914 
	C392.765411,73.100838 390.376953,73.169762 387.141144,73.133522 
	C385.435394,73.169830 383.729614,73.206146 381.108856,73.033928 
	C376.400696,73.105034 371.692566,73.176140 366.332489,73.143402 
	C365.895416,73.180092 365.458344,73.216789 364.102875,73.043381 
	C357.723877,73.120453 351.344879,73.197533 344.328125,73.170479 
	C343.900177,73.205185 343.472198,73.239883 342.195465,73.054443 
	C340.452087,73.127808 338.708710,73.201172 336.038574,73.167343 
	C329.371155,73.201401 322.703705,73.235458 315.137512,73.040962 
	C311.749481,73.117149 308.361481,73.193336 304.330292,73.169357 
	C303.898956,73.202736 303.467590,73.236115 302.118195,73.040054 
	C291.400604,73.112862 280.682983,73.185669 269.037018,73.165123 
	C260.705902,73.201530 252.374817,73.237946 243.123154,73.053337 
	C237.070816,73.124443 231.018494,73.195549 224.043167,73.155327 
	C219.043228,73.192352 214.043274,73.229370 208.120758,73.052032 
	C199.069153,73.126167 190.017548,73.200310 180.102646,73.167793 
	C178.079269,73.229721 176.055878,73.291649 173.145172,73.160423 
	C170.435272,73.188568 167.725388,73.216721 164.098251,73.028633 
	C148.062973,73.107315 132.027695,73.185997 115.101486,73.140282 
	C112.406425,73.187531 109.711365,73.234779 106.098930,73.073311 
	C100.413498,73.102974 94.728065,73.132629 88.388527,73.104431 
	C87.898560,74.048347 87.408592,74.992256 86.169807,76.381279 
	C86.168808,91.879845 86.167809,107.378410 86.030571,123.821037 
	C86.076180,137.919952 86.121788,152.018875 86.016083,167.024445 
	C86.010727,184.990707 85.987129,202.957031 86.036316,220.923141 
	C86.040054,222.288498 86.559975,223.652420 86.857292,225.080612 
	C86.857292,225.080612 86.914246,225.113815 87.002533,225.910782 
	C88.509918,226.604584 90.015503,227.898087 91.524948,227.902603 
	C115.711166,227.974869 139.897888,227.882690 164.997894,227.969254 
	C176.318375,227.920807 187.638840,227.872360 199.889877,227.982437 
	C237.891785,227.936981 275.893677,227.891541 314.836914,227.985626 
	C359.592682,227.989944 404.348450,228.016418 449.104218,227.990402 
	C476.386536,227.974548 503.668823,227.877899 531.565430,227.985352 
	C532.082886,227.730408 532.600342,227.475464 533.830750,227.088257 
	C534.584839,225.739059 535.338928,224.389862 536.840088,222.603790 
	C536.836121,214.090744 536.832214,205.577682 536.957275,196.127136 
M572.986023,552.903687 
	C572.981567,561.542297 572.961182,570.180847 572.975464,578.819458 
	C573.026306,609.548218 573.088989,640.277039 573.010254,671.933472 
	C573.007080,695.594177 572.979614,719.254944 573.011841,742.915588 
	C573.025940,753.225403 574.842041,754.998901 584.976074,754.998657 
	C618.301086,754.997803 651.626709,755.123535 684.950928,754.958191 
	C709.377502,754.837036 733.803284,754.395874 758.226135,753.923218 
	C761.172974,753.866150 764.098755,752.720947 766.743042,752.143677 
	C766.743042,590.244263 766.743042,429.170227 766.743042,267.761841 
	C759.553223,267.161987 752.585205,266.060974 745.622620,266.094452 
	C722.067444,266.207672 698.515198,266.898224 674.959900,267.041504 
	C643.319702,267.233917 611.677612,267.150208 580.036560,267.090637 
	C577.375854,267.085632 575.198242,267.420105 573.111816,270.382080 
	C573.130371,275.601227 573.148865,280.820374 573.011414,286.959045 
	C573.056641,295.296326 573.101807,303.633606 572.985413,312.647095 
	C573.039307,313.104248 573.093140,313.561432 573.010010,314.944885 
	C573.055664,336.620209 573.101318,358.295563 572.984375,380.871979 
	C573.038574,383.920837 573.092773,386.969727 573.010071,390.944885 
	C573.055725,418.286896 573.101379,445.628876 572.984375,473.770599 
	C573.038574,474.853271 573.092773,475.935913 573.010071,477.944885 
	C573.055725,493.953339 573.101318,509.961823 572.985413,526.646851 
	C573.039307,527.104248 573.093201,527.561707 573.010437,528.941650 
	C573.060608,533.947205 573.110840,538.952698 573.004456,544.831543 
	C573.056580,546.896606 573.108765,548.961609 573.023621,551.499756 
	C573.023621,551.499756 573.149536,551.975952 572.986023,552.903687 
M277.960327,280.019989 
	C277.954102,277.353516 277.854340,274.683197 277.963501,272.021454 
	C278.129303,267.978058 276.488098,266.006805 272.246246,266.121582 
	C266.418091,266.279419 260.582367,266.163910 254.749863,266.154358 
	C224.428970,266.104736 194.107254,265.893372 163.787445,266.049988 
	C139.893661,266.173462 116.000450,266.666534 92.110962,267.180389 
	C86.055885,267.310577 85.019424,268.787659 85.018967,275.259613 
	C85.007835,432.075348 85.003685,588.891052 85.006371,745.706787 
	C85.006500,753.379700 86.651047,754.998962 94.244003,754.999023 
	C222.729767,754.999573 351.215546,755.030396 479.701263,754.962463 
	C495.966797,754.953857 512.232178,754.433838 528.497375,754.136597 
	C532.910889,754.055847 535.024963,751.863586 535.021240,747.356873 
	C534.981323,699.029724 534.971069,650.702637 535.037720,602.375549 
	C535.042053,599.229187 534.262207,598.018066 530.822571,598.023010 
	C450.336243,598.139954 369.849701,598.142883 289.363220,598.166565 
	C285.627899,598.167664 281.892548,598.166748 278.271027,598.166748 
	C278.112518,597.165833 278.017609,596.846436 278.017609,596.527100 
	C278.016663,512.037415 278.022369,427.547760 278.820679,342.668060 
	C278.879578,322.752563 278.947784,302.837097 278.956299,282.921570 
	C278.956604,282.261108 278.351196,281.600342 277.960327,280.019989 
z"/>
<path fill="#FFFFFF" opacity="1.000000" stroke="none" 
	d="
M278.027832,343.058075 
	C278.022369,427.547760 278.016663,512.037415 278.017609,596.527100 
	C278.017609,596.846436 278.112518,597.165833 278.271027,598.166748 
	C281.892548,598.166748 285.627899,598.167664 289.363220,598.166565 
	C369.849701,598.142883 450.336243,598.139954 530.822571,598.023010 
	C534.262207,598.018066 535.042053,599.229187 535.037720,602.375549 
	C534.971069,650.702637 534.981323,699.029724 535.021240,747.356873 
	C535.024963,751.863586 532.910889,754.055847 528.497375,754.136597 
	C512.232178,754.433838 495.966797,754.953857 479.701263,754.962463 
	C351.215546,755.030396 222.729767,754.999573 94.244003,754.999023 
	C86.651047,754.998962 85.006500,753.379700 85.006371,745.706787 
	C85.003685,588.891052 85.007835,432.075348 85.018967,275.259613 
	C85.019424,268.787659 86.055885,267.310577 92.110962,267.180389 
	C116.000450,266.666534 139.893661,266.173462 163.787445,266.049988 
	C194.107254,265.893372 224.428970,266.104736 254.749863,266.154358 
	C260.582367,266.163910 266.418091,266.279419 272.246246,266.121582 
	C276.488098,266.006805 278.129303,267.978058 277.963501,272.021454 
	C277.854340,274.683197 277.954102,277.353516 277.985474,280.952087 
	C278.016388,302.275452 278.022095,322.666779 278.027832,343.058075 
z"/>
<path fill="#FFFFFF" opacity="1.000000" stroke="none" 
	d="
M573.875366,269.957642 
	C575.198242,267.420105 577.375854,267.085632 580.036560,267.090637 
	C611.677612,267.150208 643.319702,267.233917 674.959900,267.041504 
	C698.515198,266.898224 722.067444,266.207672 745.622620,266.094452 
	C752.585205,266.060974 759.553223,267.161987 766.743042,267.761841 
	C766.743042,429.170227 766.743042,590.244263 766.743042,752.143677 
	C764.098755,752.720947 761.172974,753.866150 758.226135,753.923218 
	C733.803284,754.395874 709.377502,754.837036 684.950928,754.958191 
	C651.626709,755.123535 618.301086,754.997803 584.976074,754.998657 
	C574.842041,754.998901 573.025940,753.225403 573.011841,742.915588 
	C572.979614,719.254944 573.007080,695.594177 573.462646,671.361084 
	C574.275818,669.096802 574.951965,667.405029 574.952698,665.713013 
	C575.005066,535.496094 575.008545,405.279205 574.960571,275.062347 
	C574.959961,273.360657 574.252747,271.659210 573.875366,269.957642 
z"/>
<path fill="#2CBFFE" opacity="1.000000" stroke="none" 
	d="
M536.093018,223.040649 
	C535.338928,224.389862 534.584839,225.739059 533.442749,226.738525 
	C533.147522,222.002747 530.819580,221.400955 527.191406,222.496674 
	C525.034180,223.148117 522.788208,223.931274 520.581665,223.932480 
	C393.388458,224.001938 266.195221,223.995544 139.092255,223.600204 
	C140.680756,222.802597 142.170456,222.097672 143.678757,222.055298 
	C148.829086,221.910614 153.991730,222.131210 159.136398,221.907074 
	C160.449692,221.849854 161.713867,220.665375 163.294617,219.701935 
	C172.683853,218.938828 181.776871,218.159439 190.875015,218.093933 
	C200.070938,218.027756 209.271942,218.926910 218.470718,218.927094 
	C227.588470,218.927292 236.704803,218.101364 245.824234,218.046310 
	C268.721100,217.908066 291.620178,217.878113 314.516876,218.029770 
	C347.619293,218.249023 380.720001,218.739639 413.822479,218.944244 
	C421.272278,218.990295 428.723572,218.198898 436.179413,218.037842 
	C443.916931,217.870697 451.660889,218.000687 459.402008,218.000595 
	C470.060303,218.000473 480.718628,218.000305 491.376923,217.999954 
	C498.039154,217.999741 504.702637,218.081192 511.363220,217.976257 
	C518.336731,217.866394 524.274841,213.937912 524.826965,208.527695 
	C525.498291,201.948868 525.800964,195.291443 525.658508,188.681046 
	C525.484070,180.588089 524.345581,172.512924 524.243347,164.422226 
	C524.130249,155.472122 524.572571,146.505554 525.042358,137.560287 
	C525.479919,129.227234 526.308167,120.915237 526.868225,112.587502 
	C526.954041,111.312080 526.358765,110.002190 526.355591,108.707565 
	C526.338562,101.755028 526.147522,94.785614 526.588257,87.858414 
	C526.747314,85.359695 526.920715,83.850403 524.016052,84.035728 
	C520.734131,84.245117 517.913696,83.810341 515.589111,81.021156 
	C514.847168,80.130905 512.834412,80.147247 511.380493,80.030441 
	C506.267029,79.619652 501.125641,79.483238 496.038361,78.877441 
	C494.926392,78.745026 493.994141,77.103455 493.447510,76.118767 
	C505.223267,76.080620 516.530640,76.080620 527.838013,76.080620 
	C527.841431,75.894119 527.844849,75.707619 527.848206,75.521126 
	C526.201233,75.039597 524.554260,74.558075 523.197937,74.038376 
	C523.993286,73.756790 524.497986,73.513390 525.002686,73.270004 
	C526.719910,73.230850 528.437195,73.191696 530.767334,73.415710 
	C531.917053,73.801476 532.453857,73.924080 533.000244,74.462006 
	C532.677490,86.083313 532.063232,97.289810 532.083679,108.495163 
	C532.109375,122.560303 532.794006,136.623032 532.940247,150.689468 
	C533.108276,166.846451 532.999756,183.006332 533.008484,199.164948 
	C533.012451,206.419968 533.009216,213.674988 533.009216,220.930008 
	C533.265381,220.984879 533.521545,221.039749 533.777649,221.094620 
	C534.491882,219.384048 535.206055,217.673462 535.953247,216.406769 
	C536.021790,218.913986 536.057373,220.977310 536.093018,223.040649 
z"/>
<path fill="#2CBFFE" opacity="1.000000" stroke="none" 
	d="
M766.843140,215.006714 
	C766.886719,216.087616 766.930359,217.168533 766.665527,218.888260 
	C765.905518,221.032501 765.454041,222.537918 764.667786,224.024872 
	C763.887024,223.976028 763.440918,223.945648 762.996094,223.517044 
	C762.897888,221.601608 762.798523,220.084396 762.784851,219.875900 
	C756.290039,218.826355 750.646179,217.914337 745.198242,216.728699 
	C751.929871,212.767731 753.478027,209.904099 752.968018,204.448227 
	C752.138794,195.577637 751.260498,186.675339 751.182678,177.779617 
	C751.075317,165.507004 751.863770,153.229004 751.933044,140.951416 
	C751.971863,134.075623 751.075134,127.196083 751.073120,120.318092 
	C751.071106,113.545990 751.666626,106.773720 752.413208,100.002411 
	C756.184448,99.732277 756.882202,101.582275 757.080627,104.570206 
	C757.405579,109.463791 758.093445,114.353111 759.005676,119.172791 
	C759.212402,120.265236 760.965820,121.064934 762.009888,122.372643 
	C762.011536,123.492386 762.010498,124.238884 762.004944,125.455452 
	C761.999451,130.399963 761.873901,134.878845 762.033752,139.347519 
	C762.184570,143.564850 762.635742,147.771439 762.964355,152.412445 
	C762.984741,154.561737 762.995605,156.281342 763.002563,158.469437 
	C763.004089,172.399734 762.659424,185.875351 763.189941,199.316422 
	C763.397949,204.586365 765.567139,209.778915 766.843140,215.006714 
z"/>
<path fill="#3CDCFE" opacity="1.000000" stroke="none" 
	d="
M139.001968,223.996552 
	C266.195221,223.995544 393.388458,224.001938 520.581665,223.932480 
	C522.788208,223.931274 525.034180,223.148117 527.191406,222.496674 
	C530.819580,221.400955 533.147522,222.002747 533.086243,226.804642 
	C532.600342,227.475464 532.082886,227.730408 531.003906,227.623627 
	C527.861267,226.843704 525.280212,226.060623 522.698914,226.059570 
	C380.560638,226.001877 238.422379,226.015366 96.284126,225.973343 
	C93.160751,225.972412 90.037537,225.412811 86.914246,225.113815 
	C86.914246,225.113815 86.857292,225.080612 86.893448,224.621490 
	C86.973663,222.422791 87.017723,220.683228 87.344177,218.644592 
	C87.744530,216.534988 87.964539,214.724503 87.965508,212.913864 
	C87.989113,168.718460 87.965897,124.522995 88.079918,80.327866 
	C88.084488,78.558357 89.351006,76.792107 90.316254,75.313873 
	C94.080788,75.757904 97.558609,75.912399 100.728973,76.340179 
	C99.441818,76.740723 98.463791,76.962975 97.482162,76.980247 
	C89.512901,77.120483 90.001312,75.673523 90.001495,84.470612 
	C90.002365,126.925949 89.997139,169.381302 90.054848,211.836578 
	C90.058189,214.292847 90.663284,216.742813 90.871277,219.205582 
	C91.198898,223.085052 93.539742,224.046585 97.037727,224.018631 
	C108.691338,223.925507 120.346214,223.992126 132.375305,224.001801 
	C133.499405,224.003036 134.248795,223.999985 135.398529,224.000763 
	C136.866547,224.001907 137.934265,223.999237 139.001968,223.996552 
z"/>
<path fill="#47D4FE" opacity="1.000000" stroke="none" 
	d="
M317.210632,451.049622 
	C317.138916,420.263214 317.038452,389.476807 317.003876,358.690369 
	C316.972260,330.562195 316.992096,302.433868 317.069794,274.305847 
	C317.074432,272.625763 317.793640,270.947632 318.930481,269.124817 
	C321.123962,268.755737 322.567291,268.530457 324.010590,268.305176 
	C326.052399,268.263794 328.094177,268.222382 330.901428,268.494507 
	C337.415649,268.886932 343.166138,269.089081 348.912689,269.008972 
	C354.281372,268.934143 359.645874,268.559692 365.012238,268.317139 
	C365.455353,268.272156 365.898499,268.227142 367.002869,268.496948 
	C378.731110,268.894958 389.798615,268.940857 400.864471,269.100250 
	C402.601074,269.125275 404.330322,269.665558 405.587463,269.984009 
	C378.854156,270.003265 352.596222,269.967163 326.339050,270.095734 
	C324.566437,270.104401 322.799896,271.354675 321.021118,272.494385 
	C320.998230,352.979889 320.984741,432.998566 320.679871,513.313477 
	C320.259338,515.732971 320.160736,517.858459 319.994446,519.978760 
	C319.679169,523.998352 319.325043,528.014954 318.694092,531.731140 
	C318.268463,529.791870 318.022278,528.154358 318.020325,526.516602 
	C317.992157,503.117218 318.013763,479.717773 317.960144,456.318512 
	C317.956116,454.561646 317.471710,452.805878 317.210632,451.049622 
z"/>
<path fill="#5DD3FE" opacity="1.000000" stroke="none" 
	d="
M101.036430,76.066895 
	C97.558609,75.912399 94.080788,75.757904 90.766235,75.309067 
	C93.943336,75.000450 96.957176,74.986168 100.442459,74.984146 
	C123.562370,74.996132 146.210999,75.031578 168.858963,74.924736 
	C170.585907,74.916588 172.308105,73.900925 174.032501,73.353577 
	C176.055878,73.291649 178.079269,73.229721 180.866882,73.471535 
	C190.768524,73.605652 199.905930,73.436028 209.043335,73.266403 
	C214.043274,73.229370 219.043228,73.192352 224.835632,73.463364 
	C231.766647,73.605713 237.905182,73.440033 244.043716,73.274361 
	C252.374817,73.237946 260.705902,73.201530 269.835205,73.459702 
	C275.731049,73.840607 280.830872,74.060654 285.925781,73.977676 
	C291.631622,73.884743 297.332947,73.517418 303.036255,73.269501 
	C303.467590,73.236115 303.898956,73.202736 304.972046,73.463043 
	C309.087952,73.594322 312.562103,73.431915 316.036285,73.269508 
	C322.703705,73.235458 329.371155,73.201401 336.776093,73.454102 
	C339.357147,73.585442 341.200714,73.430016 343.044250,73.274582 
	C343.472198,73.239883 343.900177,73.205185 344.980469,73.471138 
	C352.095642,73.599030 358.558472,73.426254 365.021271,73.253479 
	C365.458344,73.216789 365.895416,73.180092 366.987610,73.441620 
	C372.436432,73.574051 377.230164,73.408249 382.023865,73.242455 
	C383.729614,73.206146 385.435394,73.169830 387.862640,73.421906 
	C391.064362,73.558388 393.544556,73.406479 396.024780,73.254578 
	C404.700897,73.223022 413.377045,73.191475 422.851685,73.457382 
	C432.443787,73.592033 441.237335,73.429237 450.030884,73.266434 
	C450.770233,73.230560 451.509613,73.194679 452.951477,73.448608 
	C460.781982,73.573532 467.910034,73.408638 475.038055,73.243744 
	C476.086517,73.210320 477.135010,73.176895 478.895081,73.439507 
	C483.086151,73.572853 486.565582,73.410172 490.045013,73.247490 
	C491.737183,73.212456 493.429321,73.177414 495.830170,73.430023 
	C498.708008,73.568474 500.877136,73.419281 503.046295,73.270081 
	C503.474426,73.241936 503.902557,73.213791 504.982788,73.486145 
	C511.392365,73.883293 517.149841,73.979927 522.907288,74.076561 
	C524.554260,74.558075 526.201233,75.039597 527.848206,75.521126 
	C527.844849,75.707619 527.841431,75.894119 527.838013,76.080620 
	C516.530640,76.080620 505.223267,76.080620 493.007263,76.077637 
	C489.738800,76.107178 487.378937,76.139702 484.554321,76.124527 
	C479.719482,76.113129 475.349426,76.149437 470.532745,76.147263 
	C467.397491,76.136116 464.708832,76.163452 461.551361,76.137665 
	C348.880280,76.067780 236.678009,76.050751 124.475761,76.039444 
	C123.645081,76.039360 122.814400,76.117615 121.517609,76.124481 
	C114.379807,76.082085 107.708115,76.074493 101.036430,76.066895 
z"/>
<path fill="#5ADFFE" opacity="1.000000" stroke="none" 
	d="
M318.987061,532.032776 
	C319.325043,528.014954 319.679169,523.998352 319.994446,519.978760 
	C320.160736,517.858459 320.259338,515.732971 320.687378,513.780273 
	C321.027710,525.299255 321.069092,536.647888 321.079590,548.401184 
	C320.523468,553.285034 322.869049,554.963989 327.465210,554.931396 
	C337.289795,554.970581 346.646301,554.982849 356.471008,555.006531 
	C380.702301,555.332214 404.465881,555.935913 428.228271,555.892151 
	C462.809906,555.828491 497.390717,555.298767 531.971802,554.963257 
	C532.303040,554.960083 532.633545,554.895264 533.210388,554.981079 
	C533.919189,555.396179 534.382019,555.689270 534.844849,555.982361 
	C532.867310,557.000610 530.948792,558.725769 528.900574,558.896545 
	C523.954285,559.308960 518.947449,558.977051 513.965027,558.977722 
	C479.254303,558.982239 444.543579,558.995056 409.068848,558.649658 
	C391.819489,558.213013 375.334167,558.123535 358.848694,558.084900 
	C358.267395,558.083496 357.684937,558.585876 357.103027,558.853455 
	C344.889954,558.600769 332.669830,558.517822 320.467346,558.010132 
	C315.726868,557.812988 317.273041,553.676575 317.305267,550.172791 
	C317.756927,548.641846 317.903656,547.774170 318.272461,546.785645 
	C318.343536,546.137268 318.192566,545.609802 318.031952,544.652710 
	C318.343872,540.159668 318.665466,536.096191 318.987061,532.032776 
z"/>
<path fill="#4BCAFD" opacity="1.000000" stroke="none" 
	d="
M86.958389,225.512299 
	C90.037537,225.412811 93.160751,225.972412 96.284126,225.973343 
	C238.422379,226.015366 380.560638,226.001877 522.698914,226.059570 
	C525.280212,226.060623 527.861267,226.843704 530.696777,227.539719 
	C503.668823,227.877899 476.386536,227.974548 449.104218,227.990402 
	C404.348450,228.016418 359.592682,227.989944 314.070679,227.636719 
	C312.650940,227.191132 311.997375,227.009796 311.343903,227.009933 
	C273.864777,227.017731 236.385651,227.040619 198.446228,227.055603 
	C190.896820,227.048782 183.806122,226.957977 176.719177,227.082108 
	C172.504547,227.155945 168.295853,227.567947 164.084488,227.827942 
	C139.897888,227.882690 115.711166,227.974869 91.524948,227.902603 
	C90.015503,227.898087 88.509918,226.604584 86.958389,225.512299 
z"/>
<path fill="#25BAFE" opacity="1.000000" stroke="none" 
	d="
M762.007324,121.999390 
	C760.965820,121.064934 759.212402,120.265236 759.005676,119.172791 
	C758.093445,114.353111 757.405579,109.463791 757.080627,104.570206 
	C756.882202,101.582275 756.184448,99.732277 752.413208,99.564064 
	C751.996277,89.235268 749.959229,86.781265 740.616577,86.053619 
	C734.011963,85.539230 727.365173,85.520271 720.776855,84.874786 
	C719.107483,84.711227 717.589844,82.999832 716.446167,81.999542 
	C721.075378,81.641571 725.266846,81.340515 729.444336,80.906013 
	C732.241028,80.615120 733.336365,78.877419 733.476685,76.118927 
	C738.957153,76.048035 743.973145,76.014854 749.229248,76.255508 
	C750.811462,76.529350 752.153625,76.529350 753.495850,76.529350 
	C753.473206,76.031654 753.450562,75.533951 753.427979,75.036255 
	C751.945801,75.036255 750.463684,75.036255 748.514404,75.027061 
	C741.678772,74.969299 735.310364,74.920738 728.963318,74.602768 
	C729.004333,73.972397 729.023926,73.611443 729.043579,73.250481 
	C730.105713,73.212013 731.167908,73.173553 732.954590,73.450668 
	C739.095337,73.609009 744.511597,73.451767 749.927795,73.294518 
	C751.357605,73.253326 752.787354,73.212143 754.938721,73.465195 
	C758.093750,73.582634 760.527100,73.405846 762.960510,73.229050 
	C764.221924,74.575676 765.483276,75.922318 766.388672,77.630447 
	C762.970520,77.793259 761.821533,79.376328 762.007324,82.261467 
	C762.337097,87.384079 762.929504,92.510803 762.887512,97.631516 
	C762.820984,105.755997 762.322815,113.876945 762.007324,121.999390 
z"/>
<path fill="#EAF1F6" opacity="1.000000" stroke="none" 
	d="
M573.493591,270.169861 
	C574.252747,271.659210 574.959961,273.360657 574.960571,275.062347 
	C575.008545,405.279205 575.005066,535.496094 574.952698,665.713013 
	C574.951965,667.405029 574.275818,669.096802 573.531128,670.897217 
	C573.088989,640.277039 573.026306,609.548218 572.975464,578.819458 
	C572.961182,570.180847 572.981567,561.542297 573.216064,552.354126 
	C573.500427,551.705139 573.625793,551.558472 573.596619,551.514709 
	C573.476929,551.335022 573.310303,551.186584 573.160950,551.026672 
	C573.108765,548.961609 573.056580,546.896606 573.346497,544.081604 
	C573.508057,538.227478 573.327576,533.123291 573.147095,528.019104 
	C573.093201,527.561707 573.039307,527.104248 573.333984,525.994751 
	C573.774292,509.817352 573.874939,494.292023 573.923157,478.766510 
	C573.924927,478.184692 573.417236,477.601257 573.146973,477.018585 
	C573.092773,475.935913 573.038574,474.853271 573.334595,473.057678 
	C573.790588,471.695984 573.988220,471.047272 573.988647,470.398468 
	C574.005066,444.851807 574.015625,419.305145 573.967957,393.758575 
	C573.965637,392.511414 573.432739,391.265228 573.146973,390.018585 
	C573.092773,386.969727 573.038574,383.920837 573.332520,380.106995 
	C573.775024,358.150574 573.876038,336.959167 573.929321,315.767609 
	C573.930786,315.185272 573.419312,314.601624 573.146973,314.018585 
	C573.093140,313.561432 573.039307,313.104248 573.333374,311.994812 
	C573.510010,302.908203 573.338684,294.473877 573.167419,286.039520 
	C573.148865,280.820374 573.130371,275.601227 573.493591,270.169861 
z"/>
<path fill="#21A0FE" opacity="1.000000" stroke="none" 
	d="
M535.920227,215.962875 
	C535.206055,217.673462 534.491882,219.384048 533.777649,221.094620 
	C533.521545,221.039749 533.265381,220.984879 533.009216,220.930008 
	C533.009216,213.674988 533.012451,206.419968 533.008484,199.164948 
	C532.999756,183.006332 533.108276,166.846451 532.940247,150.689468 
	C532.794006,136.623032 532.109375,122.560303 532.083679,108.495163 
	C532.063232,97.289810 532.677490,86.083313 533.288208,74.443832 
	C533.758789,74.003891 533.950928,73.997452 534.143127,73.991013 
	C534.403992,74.387482 534.874329,74.773140 534.895447,75.181953 
	C535.615540,89.156189 536.293152,103.132622 536.638550,117.890747 
	C536.198608,119.658607 536.008301,120.644447 536.008179,121.630318 
	C536.004211,146.781937 536.020081,171.933548 536.018982,197.545502 
	C535.977051,203.991531 535.948669,209.977203 535.920227,215.962875 
z"/>
<path fill="#2E9EFD" opacity="1.000000" stroke="none" 
	d="
M535.080444,270.858002 
	C535.380554,271.370300 535.680725,271.882568 535.646362,273.030884 
	C535.212219,293.379822 535.102844,313.092712 535.050354,332.805756 
	C535.048401,333.551361 535.596863,334.298431 535.912109,335.370178 
	C535.924011,336.130676 535.912537,336.565765 535.638306,337.280243 
	C535.551270,340.039825 535.727051,342.519989 535.921509,345.332947 
	C535.958252,346.109772 535.976379,346.553833 535.999023,347.281006 
	C536.014587,347.752594 536.025574,347.941071 536.036560,348.129517 
	C536.036560,348.129517 535.996338,348.594879 535.656250,349.132965 
	C535.215149,352.779327 534.954590,355.892426 535.047729,358.994873 
	C535.217957,364.664429 535.597473,370.327728 535.903809,376.320770 
	C535.903381,377.083496 535.888916,377.519073 535.608765,378.277100 
	C535.233521,380.411133 535.029785,382.222595 535.028442,384.034210 
	C535.001831,419.237640 535.027710,454.441162 534.907288,489.644226 
	C534.901123,491.441345 533.678589,493.234375 533.017212,494.557373 
	C532.997070,486.386261 532.981934,478.687103 532.976440,470.520813 
	C532.993835,404.038727 533.001648,338.023804 533.021484,272.003723 
	C533.033569,271.998596 533.059814,271.999207 533.366333,271.965576 
	C534.142090,271.573975 534.611267,271.216003 535.080444,270.858002 
z"/>
<path fill="#199DF8" opacity="1.000000" stroke="none" 
	d="
M762.009888,122.372643 
	C762.322815,113.876945 762.820984,105.755997 762.887512,97.631516 
	C762.929504,92.510803 762.337097,87.384079 762.007324,82.261467 
	C761.821533,79.376328 762.970520,77.793259 766.435547,77.982117 
	C766.888672,100.681267 766.939026,123.390228 766.771179,146.653381 
	C766.651855,147.465332 766.750793,147.723083 766.849670,147.980850 
	C766.898132,149.709564 766.946594,151.438293 766.777771,153.682770 
	C766.658508,154.456650 766.756470,154.714783 766.854492,154.972900 
	C766.900940,155.427750 766.947327,155.882584 766.539551,156.775970 
	C765.726013,158.902054 765.077087,160.586014 765.056091,162.277740 
	C764.950073,170.833603 765.007324,179.391495 765.007324,187.948669 
	C763.995300,180.518478 764.078003,173.088531 763.949890,165.662201 
	C763.905823,163.103790 763.336121,160.554428 763.006531,158.000931 
	C762.995605,156.281342 762.984741,154.561737 762.977905,151.946289 
	C762.982361,146.242599 763.106934,141.430573 762.943909,136.628281 
	C762.811951,132.741226 762.333984,128.865906 762.009521,124.985374 
	C762.010498,124.238884 762.011536,123.492386 762.009888,122.372643 
z"/>
<path fill="#4FB8FE" opacity="1.000000" stroke="none" 
	d="
M533.022339,495.029297 
	C533.678589,493.234375 534.901123,491.441345 534.907288,489.644226 
	C535.027710,454.441162 535.001831,419.237640 535.028442,384.034210 
	C535.029785,382.222595 535.233521,380.411133 535.650391,378.749329 
	C535.970947,414.008606 535.970581,449.118195 536.034973,484.227661 
	C536.038452,486.134277 536.583313,488.039948 536.876221,489.946045 
	C536.924194,510.751617 536.995483,531.557251 536.947021,552.362610 
	C536.944763,553.333069 535.874023,554.300964 535.072876,555.626221 
	C534.382019,555.689270 533.919189,555.396179 533.224243,554.528442 
	C533.002258,534.312317 533.012329,514.670837 533.022339,495.029297 
z"/>
<path fill="#4BCAFD" opacity="1.000000" stroke="none" 
	d="
M765.002502,224.043335 
	C765.454041,222.537918 765.905518,221.032501 766.591064,219.288055 
	C766.825012,221.519836 766.825012,223.990631 766.825012,227.952515 
	C748.823730,227.996872 730.847351,227.978058 712.091064,227.625565 
	C700.854126,227.217987 690.397034,227.143616 679.476807,227.057587 
	C670.700867,227.306168 662.388245,227.566406 654.075562,227.826645 
	C629.605896,227.885712 605.136230,227.959076 580.666565,227.989410 
	C576.724121,227.994293 574.479309,226.372330 574.970520,221.941254 
	C575.262207,219.309784 575.026978,216.619904 575.328979,213.727509 
	C576.065613,214.667511 576.501892,215.836288 576.954346,217.448395 
	C577.035583,226.012131 577.035583,226.014099 585.092407,226.007874 
	C589.392517,226.004562 593.692566,225.993118 598.461731,225.991638 
	C652.490112,226.001343 706.049500,226.023849 759.608643,225.925461 
	C761.407715,225.922165 763.204590,224.698273 765.002502,224.043335 
z"/>
<path fill="#2DC0FE" opacity="1.000000" stroke="none" 
	d="
M576.938171,217.005066 
	C576.501892,215.836288 576.065613,214.667511 575.399597,213.271667 
	C575.112549,178.962448 575.049988,144.880310 575.000793,110.798157 
	C574.983459,98.826363 574.998779,86.854507 575.418335,74.421860 
	C577.220459,73.726234 578.603455,73.491432 579.986389,73.256630 
	C580.441101,73.214211 580.895813,73.171783 582.016418,73.448898 
	C591.127441,73.886459 599.572510,74.004494 607.694702,74.383011 
	C597.916138,74.761208 588.460510,74.878914 578.603882,75.081390 
	C577.801575,76.994797 577.053223,78.822784 577.049805,80.652161 
	C576.964783,126.103043 576.958496,171.554062 576.938171,217.005066 
z"/>
<path fill="#32ACE5" opacity="1.000000" stroke="none" 
	d="
M406.062958,269.967590 
	C404.330322,269.665558 402.601074,269.125275 400.864471,269.100250 
	C389.798615,268.940857 378.731110,268.894958 367.331726,268.564636 
	C371.314880,268.231720 375.630402,268.072052 379.945953,268.071320 
	C427.672699,268.063049 475.399475,268.079468 523.459290,268.561920 
	C522.071167,269.337250 520.351074,269.896179 518.628662,269.903015 
	C499.756012,269.977417 480.883026,269.965698 461.540344,269.972107 
	C442.734680,269.967102 424.398834,269.967346 406.062958,269.967590 
z"/>
<path fill="#5DD3FE" opacity="1.000000" stroke="none" 
	d="
M579.004883,74.996620 
	C588.460510,74.878914 597.916138,74.761208 608.161377,74.360779 
	C625.887817,74.070961 642.824707,74.086517 659.761414,74.022980 
	C661.521790,74.016380 663.280518,73.540283 665.039978,73.282036 
	C666.392944,73.242500 667.745850,73.202965 669.639526,73.594734 
	C671.407043,74.326057 672.633301,74.884743 673.860657,74.887291 
	C692.221008,74.925415 710.581482,74.890144 728.941956,74.872177 
	C735.310364,74.920738 741.678772,74.969299 748.518311,75.263199 
	C748.989502,75.508530 748.989197,75.981682 748.989197,75.981674 
	C743.973145,76.014854 738.957153,76.048035 733.106323,76.072937 
	C731.526794,76.053902 730.782043,76.043137 729.613831,76.017578 
	C727.778381,76.016724 726.366394,76.030670 724.526855,76.046501 
	C721.392822,76.375900 718.686218,76.703415 715.601562,76.858582 
	C710.170959,76.478226 705.118591,76.270226 699.672852,76.040253 
	C697.846741,76.334549 696.413818,76.650826 694.610107,76.973572 
	C693.497681,76.995148 692.756104,77.010246 691.648315,76.863304 
	C688.851257,76.542282 686.420349,76.383301 683.524292,76.174927 
	C674.042175,76.166679 665.025330,76.207848 655.609741,76.184021 
	C654.138550,76.161346 653.065979,76.203651 651.596313,76.195297 
	C650.135132,76.177528 649.070923,76.210411 647.542847,76.179123 
	C642.085693,76.108032 637.092590,76.101105 631.800232,76.073242 
	C631.301514,76.065628 631.102051,76.078964 630.440186,76.085396 
	C612.995239,76.080849 596.012756,76.083206 579.017090,75.813034 
	C579.004211,75.359207 579.004578,75.177917 579.004883,74.996620 
z"/>
<path fill="#2DC0FE" opacity="1.000000" stroke="none" 
	d="
M99.971008,74.971886 
	C96.957176,74.986168 93.943336,75.000450 90.479523,75.019539 
	C89.351006,76.792107 88.084488,78.558357 88.079918,80.327866 
	C87.965897,124.522995 87.989113,168.718460 87.965508,212.913864 
	C87.964539,214.724503 87.744530,216.534988 87.323120,218.182587 
	C87.017754,202.451828 87.042336,186.883942 86.976799,171.316406 
	C86.969498,169.582428 86.449577,167.850616 86.167389,166.117798 
	C86.121788,152.018875 86.076180,137.919952 86.383026,123.059044 
	C86.796532,106.843422 86.857574,91.389801 86.918617,75.936172 
	C87.408592,74.992256 87.898560,74.048347 89.006294,73.413239 
	C93.095894,73.850708 96.567734,73.979370 100.024460,74.324158 
	C100.009354,74.540276 99.971008,74.971886 99.971008,74.971886 
z"/>
<path fill="#2E9EFD" opacity="1.000000" stroke="none" 
	d="
M763.002563,158.469437 
	C763.336121,160.554428 763.905823,163.103790 763.949890,165.662201 
	C764.078003,173.088531 763.995300,180.518478 765.007324,187.948669 
	C765.007324,179.391495 764.950073,170.833603 765.056091,162.277740 
	C765.077087,160.586014 765.726013,158.902054 766.470215,157.113617 
	C766.902344,176.035141 766.949646,195.057571 766.920044,214.543365 
	C765.567139,209.778915 763.397949,204.586365 763.189941,199.316422 
	C762.659424,185.875351 763.004089,172.399734 763.002563,158.469437 
z"/>
<path fill="#2FD8FE" opacity="1.000000" stroke="none" 
	d="
M462.010101,269.977356 
	C480.883026,269.965698 499.756012,269.977417 518.628662,269.903015 
	C520.351074,269.896179 522.071167,269.337250 523.920532,268.666199 
	C525.089355,268.256012 526.130127,268.214325 527.656128,268.576599 
	C529.780945,269.986786 531.420349,270.993011 533.059814,271.999207 
	C533.059814,271.999207 533.033569,271.998596 532.551819,272.001526 
	C510.445038,272.000702 488.819977,272.018921 467.195129,271.951263 
	C465.463440,271.945862 463.733582,271.348175 462.003784,270.763641 
	C462.006531,270.326843 462.008301,270.152100 462.010101,269.977356 
z"/>
<path fill="#7F7FFF" opacity="1.000000" stroke="none" 
	d="
M536.930603,489.485107 
	C536.583313,488.039948 536.038452,486.134277 536.034973,484.227661 
	C535.970581,449.118195 535.970947,414.008606 535.916138,378.426849 
	C535.888916,377.519073 535.903381,377.083496 535.943726,375.857147 
	C536.255920,370.034271 536.542175,365.002167 536.828491,359.970062 
	C536.885681,388.536682 536.953735,417.103271 536.995422,445.669922 
	C537.016541,460.121307 536.989990,474.572784 536.930603,489.485107 
z"/>
<path fill="#38A6E1" opacity="1.000000" stroke="none" 
	d="
M728.963318,74.602768 
	C710.581482,74.890144 692.221008,74.925415 673.860657,74.887291 
	C672.633301,74.884743 671.407043,74.326057 670.041260,73.658699 
	C689.306519,73.216484 708.710693,73.141609 728.579224,73.158607 
	C729.023926,73.611443 729.004333,73.972397 728.963318,74.602768 
z"/>
<path fill="#76F2FE" opacity="1.000000" stroke="none" 
	d="
M198.906525,227.062027 
	C236.385651,227.040619 273.864777,227.017731 311.343903,227.009933 
	C311.997375,227.009796 312.650940,227.191132 313.600037,227.566940 
	C275.893677,227.891541 237.891785,227.936981 199.419357,227.712158 
	C198.948837,227.441895 198.906525,227.062027 198.906525,227.062027 
z"/>
<path fill="#5DD3FE" opacity="1.000000" stroke="none" 
	d="
M318.050415,546.906555 
	C317.903656,547.774170 317.756927,548.641846 317.371704,549.739624 
	C317.109039,517.302429 317.084930,484.635101 317.135712,451.508698 
	C317.471710,452.805878 317.956116,454.561646 317.960144,456.318512 
	C318.013763,479.717773 317.992157,503.117218 318.020325,526.516602 
	C318.022278,528.154358 318.268463,529.791870 318.694092,531.731140 
	C318.665466,536.096191 318.343872,540.159668 318.025452,544.956238 
	C318.035889,546.095093 318.043152,546.500854 318.050415,546.906555 
z"/>
<path fill="#4BCAFD" opacity="1.000000" stroke="none" 
	d="
M100.442459,74.984146 
	C99.971008,74.971886 100.009354,74.540276 100.430984,74.298355 
	C102.907181,73.798294 104.961746,73.540161 107.016304,73.282028 
	C109.711365,73.234779 112.406425,73.187531 115.874382,73.456032 
	C132.171188,73.835106 147.695084,73.906502 163.219055,73.931183 
	C163.817505,73.932137 164.416656,73.483833 165.015488,73.244873 
	C167.725388,73.216721 170.435272,73.188568 173.588837,73.257004 
	C172.308105,73.900925 170.585907,74.916588 168.858963,74.924736 
	C146.210999,75.031578 123.562370,74.996132 100.442459,74.984146 
z"/>
<path fill="#38A6E1" opacity="1.000000" stroke="none" 
	d="
M664.577393,73.180115 
	C663.280518,73.540283 661.521790,74.016380 659.761414,74.022980 
	C642.824707,74.086517 625.887817,74.070961 608.484253,74.100288 
	C599.572510,74.004494 591.127441,73.886459 582.352539,73.522774 
	C609.386780,73.210808 636.750793,73.144493 664.577393,73.180115 
z"/>
<path fill="#FFFFFF" opacity="1.000000" stroke="none" 
	d="
M573.078491,390.481750 
	C573.432739,391.265228 573.965637,392.511414 573.967957,393.758575 
	C574.015625,419.305145 574.005066,444.851807 573.988647,470.398468 
	C573.988220,471.047272 573.790588,471.695984 573.415894,472.657806 
	C573.101379,445.628876 573.055725,418.286896 573.078491,390.481750 
z"/>
<path fill="#199DF8" opacity="1.000000" stroke="none" 
	d="
M536.032471,197.085159 
	C536.020081,171.933548 536.004211,146.781937 536.008179,121.630318 
	C536.008301,120.644447 536.198608,119.658607 536.560303,118.354568 
	C536.866028,144.066635 536.911621,170.096893 536.693726,196.597656 
	C536.430176,197.068192 536.032471,197.085159 536.032471,197.085159 
z"/>
<path fill="#4FB8FE" opacity="1.000000" stroke="none" 
	d="
M535.888855,335.044800 
	C535.596863,334.298431 535.048401,333.551361 535.050354,332.805756 
	C535.102844,313.092712 535.212219,293.379822 535.573364,273.349304 
	C535.888184,275.041962 535.919128,277.053162 535.998474,279.062408 
	C536.314453,287.060974 536.645508,295.058960 536.631348,303.837646 
	C536.157471,314.760345 536.023193,324.902588 535.888855,335.044800 
z"/>
<path fill="#FFFFFF" opacity="1.000000" stroke="none" 
	d="
M573.078491,314.481750 
	C573.419312,314.601624 573.930786,315.185272 573.929321,315.767609 
	C573.876038,336.959167 573.775024,358.150574 573.413757,379.656433 
	C573.101318,358.295563 573.055664,336.620209 573.078491,314.481750 
z"/>
<path fill="#FFFFFF" opacity="1.000000" stroke="none" 
	d="
M278.424255,342.863068 
	C278.022095,322.666779 278.016388,302.275452 278.019379,281.411926 
	C278.351196,281.600342 278.956604,282.261108 278.956299,282.921570 
	C278.947784,302.837097 278.879578,322.752563 278.424255,342.863068 
z"/>
<path fill="#00FFFF" opacity="1.000000" stroke="none" 
	d="
M86.091736,166.571121 
	C86.449577,167.850616 86.969498,169.582428 86.976799,171.316406 
	C87.042336,186.883942 87.017754,202.451828 87.040718,218.481628 
	C87.017723,220.683228 86.973663,222.422791 86.884781,224.589691 
	C86.559975,223.652420 86.040054,222.288498 86.036316,220.923141 
	C85.987129,202.957031 86.010727,184.990707 86.091736,166.571121 
z"/>
<path fill="#00FFFF" opacity="1.000000" stroke="none" 
	d="
M357.558533,558.918823 
	C357.684937,558.585876 358.267395,558.083496 358.848694,558.084900 
	C375.334167,558.123535 391.819489,558.213013 408.598785,558.573730 
	C391.933167,558.896973 374.973572,558.940552 357.558533,558.918823 
z"/>
<path fill="#399DCF" opacity="1.000000" stroke="none" 
	d="
M164.556870,73.136749 
	C164.416656,73.483833 163.817505,73.932137 163.219055,73.931183 
	C147.695084,73.906502 132.171188,73.835106 116.319839,73.518234 
	C132.027695,73.185997 148.062973,73.107315 164.556870,73.136749 
z"/>
<path fill="#FFFFFF" opacity="1.000000" stroke="none" 
	d="
M573.078491,477.481750 
	C573.417236,477.601257 573.924927,478.184692 573.923157,478.766510 
	C573.874939,494.292023 573.774292,509.817352 573.414795,525.656494 
	C573.101318,509.961823 573.055725,493.953339 573.078491,477.481750 
z"/>
<path fill="#00FFFF" opacity="1.000000" stroke="none" 
	d="
M86.544212,76.158722 
	C86.857574,91.389801 86.796532,106.843422 86.451149,122.587013 
	C86.167809,107.378410 86.168808,91.879845 86.544212,76.158722 
z"/>
<path fill="#7F7FFF" opacity="1.000000" stroke="none" 
	d="
M535.912109,335.370178 
	C536.023193,324.902588 536.157471,314.760345 536.560425,304.298279 
	C536.878967,318.016174 536.928894,332.053925 536.695679,346.549133 
	C536.412537,347.006561 535.994507,346.997864 535.994507,346.997864 
	C535.976379,346.553833 535.958252,346.109772 535.955811,344.889984 
	C535.948059,341.743103 535.924561,339.371979 535.901123,337.000854 
	C535.912537,336.565765 535.924011,336.130676 535.912109,335.370178 
z"/>
<path fill="#00FFFF" opacity="1.000000" stroke="none" 
	d="
M198.446228,227.055603 
	C198.906525,227.062027 198.948837,227.441895 198.954071,227.632904 
	C187.638840,227.872360 176.318375,227.920807 164.541199,227.898590 
	C168.295853,227.567947 172.504547,227.155945 176.719177,227.082108 
	C183.806122,226.957977 190.896820,227.048782 198.446228,227.055603 
z"/>
<path fill="#32ACE5" opacity="1.000000" stroke="none" 
	d="
M364.552734,268.211884 
	C359.645874,268.559692 354.281372,268.934143 348.912689,269.008972 
	C343.166138,269.089081 337.415649,268.886932 331.334717,268.561218 
	C342.032745,268.245148 353.062958,268.175903 364.552734,268.211884 
z"/>
<path fill="#399DCF" opacity="1.000000" stroke="none" 
	d="
M302.577209,73.154778 
	C297.332947,73.517418 291.631622,73.884743 285.925781,73.977676 
	C280.830872,74.060654 275.731049,73.840607 270.299377,73.506378 
	C280.682983,73.185669 291.400604,73.112862 302.577209,73.154778 
z"/>
<path fill="#4FB8FE" opacity="1.000000" stroke="none" 
	d="
M536.899719,359.549561 
	C536.542175,365.002167 536.255920,370.034271 535.929688,375.529999 
	C535.597473,370.327728 535.217957,364.664429 535.047729,358.994873 
	C534.954590,355.892426 535.215149,352.779327 535.576538,349.352478 
	C536.214905,352.398956 536.592957,355.764008 536.899719,359.549561 
z"/>
<path fill="#76F2FE" opacity="1.000000" stroke="none" 
	d="
M679.940002,227.069244 
	C690.397034,227.143616 700.854126,227.217987 711.622437,227.557556 
	C701.583191,227.875931 691.232727,227.929062 680.418091,227.714081 
	C679.953857,227.445953 679.940002,227.069244 679.940002,227.069244 
z"/>
<path fill="#399DCF" opacity="1.000000" stroke="none" 
	d="
M208.582047,73.159218 
	C199.905930,73.436028 190.768524,73.605652 181.298523,73.524864 
	C190.017548,73.200310 199.069153,73.126167 208.582047,73.159218 
z"/>
<path fill="#399DCF" opacity="1.000000" stroke="none" 
	d="
M449.571381,73.156723 
	C441.237335,73.429237 432.443787,73.592033 423.316284,73.510834 
	C431.692200,73.193550 440.402039,73.120277 449.571381,73.156723 
z"/>
<path fill="#FFFFFF" opacity="1.000000" stroke="none" 
	d="
M573.089417,286.499268 
	C573.338684,294.473877 573.510010,302.908203 573.414185,311.656738 
	C573.101807,303.633606 573.056641,295.296326 573.089417,286.499268 
z"/>
<path fill="#00FFFF" opacity="1.000000" stroke="none" 
	d="
M536.018982,197.545502 
	C536.032471,197.085159 536.430176,197.068192 536.629272,197.066406 
	C536.832214,205.577682 536.836121,214.090744 536.466553,222.822220 
	C536.057373,220.977310 536.021790,218.913986 535.953247,216.406769 
	C535.948669,209.977203 535.977051,203.991531 536.018982,197.545502 
z"/>
<path fill="#00FFFF" opacity="1.000000" stroke="none" 
	d="
M679.476807,227.057587 
	C679.940002,227.069244 679.953857,227.445953 679.952271,227.634415 
	C671.630737,227.871597 663.310669,227.920334 654.533081,227.897858 
	C662.388245,227.566406 670.700867,227.306168 679.476807,227.057587 
z"/>
<path fill="#399DCF" opacity="1.000000" stroke="none" 
	d="
M474.577515,73.135696 
	C467.910034,73.408638 460.781982,73.573532 453.319366,73.496429 
	C460.028839,73.178841 467.072906,73.103241 474.577515,73.135696 
z"/>
<path fill="#399DCF" opacity="1.000000" stroke="none" 
	d="
M364.562073,73.148430 
	C358.558472,73.426254 352.095642,73.599030 345.299377,73.523209 
	C351.344879,73.197533 357.723877,73.120453 364.562073,73.148430 
z"/>
<path fill="#399DCF" opacity="1.000000" stroke="none" 
	d="
M523.197937,74.038376 
	C517.149841,73.979927 511.392365,73.883293 505.300964,73.539154 
	C511.340393,73.214256 517.713745,73.136856 524.544922,73.164734 
	C524.497986,73.513390 523.993286,73.756790 523.197937,74.038376 
z"/>
<path fill="#399DCF" opacity="1.000000" stroke="none" 
	d="
M243.583435,73.163849 
	C237.905182,73.440033 231.766647,73.605713 225.297134,73.519020 
	C231.018494,73.195549 237.070816,73.124443 243.583435,73.163849 
z"/>
<path fill="#399DCF" opacity="1.000000" stroke="none" 
	d="
M106.557617,73.177673 
	C104.961746,73.540161 102.907181,73.798294 100.446091,74.082230 
	C96.567734,73.979370 93.095894,73.850708 89.333344,73.442169 
	C94.728065,73.132629 100.413498,73.102974 106.557617,73.177673 
z"/>
<path fill="#32ACE5" opacity="1.000000" stroke="none" 
	d="
M533.366333,271.965576 
	C531.420349,270.993011 529.780945,269.986786 528.042236,268.643799 
	C530.299927,268.899078 532.656860,269.491119 535.047119,270.470581 
	C534.611267,271.216003 534.142090,271.573975 533.366333,271.965576 
z"/>
<path fill="#38A6E1" opacity="1.000000" stroke="none" 
	d="
M749.475769,73.199074 
	C744.511597,73.451767 739.095337,73.609009 733.347534,73.523422 
	C738.351868,73.221596 743.687805,73.162613 749.475769,73.199074 
z"/>
<path fill="#FFFFFF" opacity="1.000000" stroke="none" 
	d="
M573.078735,528.480347 
	C573.327576,533.123291 573.508057,538.227478 573.424805,543.644958 
	C573.110840,538.952698 573.060608,533.947205 573.078735,528.480347 
z"/>
<path fill="#399DCF" opacity="1.000000" stroke="none" 
	d="
M381.566345,73.138191 
	C377.230164,73.408249 372.436432,73.574051 367.313568,73.493546 
	C371.692566,73.176140 376.400696,73.105034 381.566345,73.138191 
z"/>
<path fill="#399DCF" opacity="1.000000" stroke="none" 
	d="
M489.593018,73.141464 
	C486.565582,73.410172 483.086151,73.572853 479.285614,73.491638 
	C482.356689,73.176971 485.748871,73.106201 489.593018,73.141464 
z"/>
<path fill="#399DCF" opacity="1.000000" stroke="none" 
	d="
M315.586914,73.155235 
	C312.562103,73.431915 309.087952,73.594322 305.293610,73.513123 
	C308.361481,73.193336 311.749481,73.117149 315.586914,73.155235 
z"/>
<path fill="#399DCF" opacity="1.000000" stroke="none" 
	d="
M395.589294,73.143250 
	C393.544556,73.406479 391.064362,73.558388 388.286316,73.474487 
	C390.376953,73.169762 392.765411,73.100838 395.589294,73.143250 
z"/>
<path fill="#38A6E1" opacity="1.000000" stroke="none" 
	d="
M762.526978,73.150589 
	C760.527100,73.405846 758.093750,73.582634 755.363159,73.535126 
	C757.408447,73.231262 759.750916,73.151695 762.526978,73.150589 
z"/>
<path fill="#399DCF" opacity="1.000000" stroke="none" 
	d="
M502.615143,73.153198 
	C500.877136,73.419281 498.708008,73.568474 496.250519,73.481445 
	C498.036133,73.175575 500.110046,73.105942 502.615143,73.153198 
z"/>
<path fill="#399DCF" opacity="1.000000" stroke="none" 
	d="
M342.619873,73.164520 
	C341.200714,73.430016 339.357147,73.585442 337.239471,73.507706 
	C338.708710,73.201172 340.452087,73.127808 342.619873,73.164520 
z"/>
<path fill="#32ACE5" opacity="1.000000" stroke="none" 
	d="
M323.628784,268.201965 
	C322.567291,268.530457 321.123962,268.755737 319.301453,268.945679 
	C320.363800,268.639771 321.805389,268.369263 323.628784,268.201965 
z"/>
<path fill="#38A6E1" opacity="1.000000" stroke="none" 
	d="
M579.597290,73.170517 
	C578.603455,73.491432 577.220459,73.726234 575.468628,73.951988 
	C576.469238,73.656761 577.838684,73.370583 579.597290,73.170517 
z"/>
<path fill="#399DCF" opacity="1.000000" stroke="none" 
	d="
M533.989746,73.657341 
	C533.950928,73.997452 533.758789,74.003891 533.278625,74.028511 
	C532.453857,73.924080 531.917053,73.801476 531.193237,73.474243 
	C531.949646,73.287636 532.893066,73.305656 533.989746,73.657341 
z"/>
<path fill="#2E9EFD" opacity="1.000000" stroke="none" 
	d="
M766.913086,154.735062 
	C766.756470,154.714783 766.658508,154.456650 766.707214,154.110107 
	C766.853943,154.021683 766.971619,154.497223 766.913086,154.735062 
z"/>
<path fill="#2E9EFD" opacity="1.000000" stroke="none" 
	d="
M766.907104,147.742737 
	C766.750793,147.723083 766.651855,147.465332 766.697876,147.118835 
	C766.842712,147.030121 766.964539,147.504623 766.907104,147.742737 
z"/>
<path fill="#FFFFFF" opacity="1.000000" stroke="none" 
	d="
M573.092285,551.263184 
	C573.310303,551.186584 573.476929,551.335022 573.596619,551.514709 
	C573.625793,551.558472 573.500427,551.705139 573.297791,551.890259 
	C573.149536,551.975952 573.023621,551.499756 573.092285,551.263184 
z"/>
<path fill="#4FB8FE" opacity="1.000000" stroke="none" 
	d="
M535.999023,347.281006 
	C535.994507,346.997864 536.412537,347.006561 536.621216,347.013824 
	C536.731689,347.326080 536.633545,347.631073 536.286011,348.032776 
	C536.025574,347.941071 536.014587,347.752594 535.999023,347.281006 
z"/>
<path fill="#2DB3FE" opacity="1.000000" stroke="none" 
	d="
M462.020203,76.190781 
	C464.708832,76.163452 467.397491,76.136116 470.551544,76.520271 
	C473.022278,82.060608 477.478790,79.678841 480.861450,79.765900 
	C482.215607,79.800751 483.631378,77.441650 485.019104,76.172226 
	C487.378937,76.139702 489.738800,76.107178 492.538879,76.115784 
	C493.994141,77.103455 494.926392,78.745026 496.038361,78.877441 
	C501.125641,79.483238 506.267029,79.619652 511.380493,80.030441 
	C512.834412,80.147247 514.847168,80.130905 515.589111,81.021156 
	C517.913696,83.810341 520.734131,84.245117 524.016052,84.035728 
	C526.920715,83.850403 526.747314,85.359695 526.588257,87.858414 
	C526.147522,94.785614 526.338562,101.755028 526.355591,108.707565 
	C526.358765,110.002190 526.954041,111.312080 526.868225,112.587502 
	C526.308167,120.915237 525.479919,129.227234 525.042358,137.560287 
	C524.572571,146.505554 524.130249,155.472122 524.243347,164.422226 
	C524.345581,172.512924 525.484070,180.588089 525.658508,188.681046 
	C525.800964,195.291443 525.498291,201.948868 524.826965,208.527695 
	C524.274841,213.937912 518.336731,217.866394 511.363220,217.976257 
	C504.702637,218.081192 498.039154,217.999741 491.376923,217.999954 
	C480.718628,218.000305 470.060303,218.000473 459.402008,218.000595 
	C451.660889,218.000687 443.916931,217.870697 436.179413,218.037842 
	C428.723572,218.198898 421.272278,218.990295 413.822479,218.944244 
	C380.720001,218.739639 347.619293,218.249023 314.516876,218.029770 
	C291.620178,217.878113 268.721100,217.908066 245.824234,218.046310 
	C236.704803,218.101364 227.588470,218.927292 218.470718,218.927094 
	C209.271942,218.926910 200.070938,218.027756 190.875015,218.093933 
	C181.776871,218.159439 172.683853,218.938828 162.834396,219.701935 
	C148.189163,219.332413 134.301224,218.281570 120.405739,218.170135 
	C113.949509,218.118347 108.194748,216.718765 103.102676,213.221176 
	C101.130653,211.866669 99.255241,208.826385 99.199463,206.509232 
	C99.012550,198.743317 99.822922,190.960098 99.969055,183.178207 
	C100.386940,160.923767 100.705399,138.667236 100.980438,116.410507 
	C101.094673,107.166206 100.999397,97.919327 100.999397,88.485779 
	C100.127899,88.152184 98.796448,87.642540 97.465004,87.132896 
	C97.538925,86.782555 97.612839,86.432213 97.686752,86.081879 
	C111.458572,85.053162 125.230385,84.024445 139.436310,82.997147 
	C146.842758,82.688293 153.813950,82.173615 160.787857,82.133278 
	C166.238693,82.101761 171.695892,82.954712 177.145111,82.900146 
	C195.250946,82.718849 213.357452,81.938095 231.457977,82.086212 
	C248.830673,82.228371 266.242950,80.763023 283.598328,83.778336 
	C288.854523,84.691551 294.558929,82.764420 300.074646,82.530838 
	C304.159607,82.357849 308.275330,83.033241 312.370697,82.959892 
	C324.821014,82.736923 337.266876,82.270912 349.716827,82.015945 
	C368.747009,81.626213 387.778259,81.187981 406.810974,81.065872 
	C415.426208,81.010597 424.045959,81.922943 432.663788,81.924873 
	C441.114868,81.926773 449.563904,81.221397 458.018372,81.048180 
	C461.556702,80.975685 462.187775,79.043648 462.020203,76.190781 
z"/>
<path fill="#24C0FE" opacity="1.000000" stroke="none" 
	d="
M139.002197,82.995728 
	C125.230385,84.024445 111.458572,85.053162 97.686752,86.081879 
	C97.612839,86.432213 97.538925,86.782555 97.465004,87.132896 
	C98.796448,87.642540 100.127899,88.152184 100.999397,88.485779 
	C100.999397,97.919327 101.094673,107.166206 100.980438,116.410507 
	C100.705399,138.667236 100.386940,160.923767 99.969055,183.178207 
	C99.822922,190.960098 99.012550,198.743317 99.199463,206.509232 
	C99.255241,208.826385 101.130653,211.866669 103.102676,213.221176 
	C108.194748,216.718765 113.949509,218.118347 120.405739,218.170135 
	C134.301224,218.281570 148.189163,219.332413 162.540405,219.998779 
	C161.713867,220.665375 160.449692,221.849854 159.136398,221.907074 
	C153.991730,222.131210 148.829086,221.910614 143.678757,222.055298 
	C142.170456,222.097672 140.680756,222.802597 139.092255,223.600220 
	C137.934265,223.999237 136.866547,224.001907 135.349396,223.666763 
	C133.933517,223.551804 132.967056,223.774658 132.000610,223.997513 
	C120.346214,223.992126 108.691338,223.925507 97.037727,224.018631 
	C93.539742,224.046585 91.198898,223.085052 90.871277,219.205582 
	C90.663284,216.742813 90.058189,214.292847 90.054848,211.836578 
	C89.997139,169.381302 90.002365,126.925949 90.001495,84.470612 
	C90.001312,75.673523 89.512901,77.120483 97.482162,76.980247 
	C98.463791,76.962975 99.441818,76.740723 100.728973,76.340179 
	C107.708115,76.074493 114.379807,76.082085 121.541946,76.521133 
	C123.745079,80.930199 127.194313,78.588882 129.794800,78.890411 
	C133.402496,79.308723 137.122009,78.910568 139.002197,82.995728 
z"/>
<path fill="#2CB3FF" opacity="1.000000" stroke="none" 
	d="
M692.014465,77.025345 
	C692.756104,77.010246 693.497681,76.995148 695.000122,76.990921 
	C697.195984,76.688606 698.631042,76.375412 700.066162,76.062225 
	C705.118591,76.270226 710.170959,76.478226 715.608276,77.271484 
	C715.996277,79.237724 715.999390,80.618706 716.002441,81.999687 
	C717.589844,82.999832 719.107483,84.711227 720.776855,84.874786 
	C727.365173,85.520271 734.011963,85.539230 740.616577,86.053619 
	C749.959229,86.781265 751.996277,89.235268 752.000000,99.563179 
	C751.666626,106.773720 751.071106,113.545990 751.073120,120.318092 
	C751.075134,127.196083 751.971863,134.075623 751.933044,140.951416 
	C751.863770,153.229004 751.075317,165.507004 751.182678,177.779617 
	C751.260498,186.675339 752.138794,195.577637 752.968018,204.448227 
	C753.478027,209.904099 751.929871,212.767731 744.729553,216.727905 
	C736.949158,217.332367 729.836365,217.783447 722.716614,217.971130 
	C707.025330,218.384750 691.331055,218.900009 675.637146,218.930389 
	C661.695923,218.957352 647.643799,217.177811 633.843628,218.430786 
	C620.942139,219.602158 608.591553,218.509644 596.119934,216.051270 
	C590.238037,214.891830 587.745361,211.118149 588.794006,205.014420 
	C589.072815,203.391891 588.992188,201.699081 588.992615,200.038528 
	C589.002380,166.076019 589.000000,132.113525 589.000000,98.151024 
	C589.000000,94.344521 589.000000,90.538010 589.000000,86.790855 
	C592.378906,85.936272 596.070496,84.567299 599.869202,84.130859 
	C608.227173,83.170601 616.631104,82.541573 625.032288,82.052727 
	C630.010010,81.763092 635.042908,82.300232 640.004272,81.894646 
	C643.504883,81.608482 647.523315,81.191734 648.006775,76.243301 
	C649.070923,76.210411 650.135132,76.177528 651.612244,76.547188 
	C652.721558,77.607628 653.417847,78.265518 654.114197,78.923431 
	C654.745605,78.031967 655.377014,77.140495 656.008423,76.249016 
	C665.025330,76.207848 674.042175,76.166679 683.527466,76.566246 
	C684.614319,78.307739 685.232849,79.608505 685.851318,80.909271 
	C688.000793,79.765480 691.945984,81.471260 692.014465,77.025345 
z"/>
<path fill="#25BFFE" opacity="1.000000" stroke="none" 
	d="
M647.542847,76.179123 
	C647.523315,81.191734 643.504883,81.608482 640.004272,81.894646 
	C635.042908,82.300232 630.010010,81.763092 625.032288,82.052727 
	C616.631104,82.541573 608.227173,83.170601 599.869202,84.130859 
	C596.070496,84.567299 592.378906,85.936272 589.000000,86.790855 
	C589.000000,90.538010 589.000000,94.344521 589.000000,98.151024 
	C589.000000,132.113525 589.002380,166.076019 588.992615,200.038528 
	C588.992188,201.699081 589.072815,203.391891 588.794006,205.014420 
	C587.745361,211.118149 590.238037,214.891830 596.119934,216.051270 
	C608.591553,218.509644 620.942139,219.602158 633.843628,218.430786 
	C647.643799,217.177811 661.695923,218.957352 675.637146,218.930389 
	C691.331055,218.900009 707.025330,218.384750 722.716614,217.971130 
	C729.836365,217.783447 736.949158,217.332367 744.533691,217.001556 
	C750.646179,217.914337 756.290039,218.826355 762.784851,219.875900 
	C762.798523,220.084396 762.897888,221.601608 762.611450,223.534897 
	C757.083862,221.057053 751.960510,224.058441 746.825256,224.051300 
	C697.212769,223.982361 647.600037,224.045120 597.521240,224.051392 
	C594.062439,224.023132 591.069824,224.011673 588.077271,224.004715 
	C579.884949,223.985672 579.191467,223.298935 579.031982,214.921738 
	C578.990845,212.761139 579.016235,210.599213 579.015564,208.437897 
	C579.003174,171.861725 579.017639,135.285492 578.940857,98.709473 
	C578.932861,94.923500 578.144714,91.138199 578.152283,87.353455 
	C578.159790,83.596924 578.715210,79.841484 579.030273,76.085564 
	C596.012756,76.083206 612.995239,76.080849 630.484314,76.327217 
	C631.161438,76.830551 631.332031,77.085167 631.502563,77.339775 
	C631.701477,76.924568 631.900452,76.509369 632.099426,76.094177 
	C637.092590,76.101105 642.085693,76.108032 647.542847,76.179123 
z"/>
<path fill="#3CDCFE" opacity="1.000000" stroke="none" 
	d="
M597.987427,224.070251 
	C647.600037,224.045120 697.212769,223.982361 746.825256,224.051300 
	C751.960510,224.058441 757.083862,221.057053 762.610229,223.933136 
	C763.440918,223.945648 763.887024,223.976028 764.667786,224.024872 
	C763.204590,224.698273 761.407715,225.922165 759.608643,225.925461 
	C706.049500,226.023849 652.490112,226.001343 598.462891,225.672180 
	C597.992493,224.921036 597.989929,224.495636 597.987427,224.070251 
z"/>
<path fill="#25BAFE" opacity="1.000000" stroke="none" 
	d="
M762.005005,125.455452 
	C762.333984,128.865906 762.811951,132.741226 762.943909,136.628281 
	C763.106934,141.430573 762.982361,146.242599 762.968384,151.516586 
	C762.635742,147.771439 762.184570,143.564850 762.033752,139.347519 
	C761.873901,134.878845 761.999451,130.399963 762.005005,125.455452 
z"/>
<path fill="#2CBFFE" opacity="1.000000" stroke="none" 
	d="
M132.375305,224.001801 
	C132.967056,223.774658 133.933517,223.551804 134.949081,223.662949 
	C134.248795,223.999985 133.499405,224.003036 132.375305,224.001801 
z"/>
<path fill="#28C1FE" opacity="1.000000" stroke="none" 
	d="
M321.110474,547.996460 
	C321.069092,536.647888 321.027710,525.299255 320.978760,513.483948 
	C320.984741,432.998566 320.998230,352.979889 321.426910,272.430939 
	C325.568298,271.628632 329.294434,271.356598 333.008972,271.455017 
	C332.815704,275.862366 332.472443,279.899933 332.490784,283.935883 
	C332.517670,289.846680 333.011841,295.759308 332.926300,301.665649 
	C332.819519,309.039825 332.065796,316.407623 332.044464,323.779510 
	C331.944458,358.362946 331.889404,392.947327 332.044403,427.530334 
	C332.127838,446.142181 332.799530,464.751038 332.935669,483.363190 
	C332.991364,490.978790 332.137787,498.597229 332.046356,506.218567 
	C331.913574,517.290588 331.893890,528.374451 332.340454,539.432556 
	C332.416565,541.317322 334.796722,544.320801 336.573608,544.711731 
	C343.616669,546.261414 350.842896,546.978943 358.000488,548.387451 
	C357.334106,550.845032 356.668427,552.920105 356.002777,554.995117 
	C346.646301,554.982849 337.289795,554.970581 327.425903,554.582886 
	C325.500824,551.652466 325.478607,547.792480 321.110474,547.996460 
z"/>
<path fill="#35E9FE" opacity="1.000000" stroke="none" 
	d="
M333.020599,271.084564 
	C329.294434,271.356598 325.568298,271.628632 321.436340,271.964050 
	C322.799896,271.354675 324.566437,270.104401 326.339050,270.095734 
	C352.596222,269.967163 378.854156,270.003265 405.587463,269.984009 
	C424.398834,269.967346 442.734680,269.967102 461.540344,269.972107 
	C462.008301,270.152100 462.006531,270.326843 461.535461,270.760132 
	C451.704926,271.019257 442.343689,271.006653 432.982483,271.023346 
	C418.653259,271.048920 404.324127,271.094696 389.530457,271.095917 
	C384.384857,271.077026 379.703705,271.094116 374.552551,271.077332 
	C361.048126,271.057007 348.013702,271.070496 334.652771,271.070282 
	C333.891022,271.065887 333.455811,271.075226 333.020599,271.084564 
z"/>
<path fill="#2CBFFE" opacity="1.000000" stroke="none" 
	d="
M139.436310,82.997147 
	C137.122009,78.910568 133.402496,79.308723 129.794800,78.890411 
	C127.194313,78.588882 123.745079,80.930199 122.008064,76.555939 
	C122.814400,76.117615 123.645081,76.039360 124.475761,76.039444 
	C236.678009,76.050751 348.880280,76.067780 461.551361,76.137665 
	C462.187775,79.043648 461.556702,80.975685 458.018372,81.048180 
	C449.563904,81.221397 441.114868,81.926773 432.663788,81.924873 
	C424.045959,81.922943 415.426208,81.010597 406.810974,81.065872 
	C387.778259,81.187981 368.747009,81.626213 349.716827,82.015945 
	C337.266876,82.270912 324.821014,82.736923 312.370697,82.959892 
	C308.275330,83.033241 304.159607,82.357849 300.074646,82.530838 
	C294.558929,82.764420 288.854523,84.691551 283.598328,83.778336 
	C266.242950,80.763023 248.830673,82.228371 231.457977,82.086212 
	C213.357452,81.938095 195.250946,82.718849 177.145111,82.900146 
	C171.695892,82.954712 166.238693,82.101761 160.787857,82.133278 
	C153.813950,82.173615 146.842758,82.688293 139.436310,82.997147 
z"/>
<path fill="#2CBFFE" opacity="1.000000" stroke="none" 
	d="
M484.554321,76.124527 
	C483.631378,77.441650 482.215607,79.800751 480.861450,79.765900 
	C477.478790,79.678841 473.022278,82.060608 470.998169,76.558746 
	C475.349426,76.149437 479.719482,76.113129 484.554321,76.124527 
z"/>
<path fill="#2DC0FE" opacity="1.000000" stroke="none" 
	d="
M356.471008,555.006470 
	C356.668427,552.920105 357.334106,550.845032 358.429321,548.387207 
	C361.146301,548.335938 363.432922,548.949341 365.721252,548.955688 
	C390.789429,549.025391 415.858734,549.130432 440.925995,548.962830 
	C463.951324,548.808960 486.979797,548.513672 509.994141,547.843872 
	C514.449768,547.714233 518.885498,545.687439 523.243164,544.268066 
	C524.308228,543.921143 525.721436,542.570068 525.796204,541.590698 
	C526.299927,534.994141 526.812683,528.366638 526.676575,521.762390 
	C526.557861,516.003296 525.202515,510.269897 525.080261,504.510559 
	C524.818359,492.169617 525.000000,479.819305 525.000000,467.472809 
	C525.000000,448.315216 525.000000,429.157593 525.396729,409.909393 
	C526.195679,407.985413 526.940552,406.153351 526.947632,404.318451 
	C527.030151,382.988586 526.970276,361.658203 527.042175,340.328217 
	C527.051025,337.708344 528.312439,334.938293 527.786621,332.497894 
	C525.599304,322.347015 528.602417,312.555328 529.346741,302.619202 
	C529.428345,301.529785 530.330566,300.501831 530.852173,299.445374 
	C531.233276,299.518524 531.614319,299.591644 531.995422,299.664795 
	C531.995422,301.582275 531.995361,303.499756 531.995422,305.417236 
	C531.996948,358.708344 531.988464,411.999451 532.040710,465.290527 
	C532.042542,467.189972 532.644592,469.088806 532.966858,470.987946 
	C532.981934,478.687103 532.997070,486.386261 533.017273,494.557373 
	C533.012329,514.670837 533.002258,534.312317 532.978271,554.406494 
	C532.633545,554.895264 532.303040,554.960083 531.971802,554.963257 
	C497.390717,555.298767 462.809906,555.828491 428.228271,555.892151 
	C404.465881,555.935913 380.702301,555.332214 356.471008,555.006470 
z"/>
<path fill="#2DC0FE" opacity="1.000000" stroke="none" 
	d="
M321.079590,548.401184 
	C325.478607,547.792480 325.500824,551.652466 326.957794,554.555908 
	C322.869049,554.963989 320.523468,553.285034 321.079590,548.401184 
z"/>
<path fill="#47D4FE" opacity="1.000000" stroke="none" 
	d="
M318.272461,546.785645 
	C318.043152,546.500854 318.035889,546.095093 318.035126,545.385864 
	C318.192566,545.609802 318.343536,546.137268 318.272461,546.785645 
z"/>
<path fill="#25BFFE" opacity="1.000000" stroke="none" 
	d="
M716.446167,81.999542 
	C715.999390,80.618706 715.996277,79.237724 715.986450,77.443832 
	C718.686218,76.703415 721.392822,76.375900 724.770508,76.305428 
	C726.973572,76.385773 728.505432,76.209076 730.037292,76.032379 
	C730.782043,76.043137 731.526794,76.053902 732.641846,76.110657 
	C733.336365,78.877419 732.241028,80.615120 729.444336,80.906013 
	C725.266846,81.340515 721.075378,81.641571 716.446167,81.999542 
z"/>
<path fill="#47D4FE" opacity="1.000000" stroke="none" 
	d="
M749.229248,76.255516 
	C748.989197,75.981682 748.989502,75.508530 748.985535,75.272392 
	C750.463684,75.036255 751.945801,75.036255 753.427979,75.036255 
	C753.450562,75.533951 753.473206,76.031654 753.495850,76.529350 
	C752.153625,76.529350 750.811462,76.529350 749.229248,76.255516 
z"/>
<path fill="#25BAFE" opacity="1.000000" stroke="none" 
	d="
M532.976440,470.520813 
	C532.644592,469.088806 532.042542,467.189972 532.040710,465.290527 
	C531.988464,411.999451 531.996948,358.708344 531.995422,305.417236 
	C531.995361,303.499756 531.995422,301.582275 531.995422,299.664795 
	C531.614319,299.591644 531.233276,299.518524 530.852173,299.445374 
	C530.330566,300.501831 529.428345,301.529785 529.346741,302.619202 
	C528.602417,312.555328 525.599304,322.347015 527.786621,332.497894 
	C528.312439,334.938293 527.051025,337.708344 527.042175,340.328217 
	C526.970276,361.658203 527.030151,382.988586 526.947632,404.318451 
	C526.940552,406.153351 526.195679,407.985413 525.396729,409.440735 
	C524.886658,390.992004 524.947998,372.917938 524.599365,354.851776 
	C524.362915,342.600037 523.557800,330.359070 522.983093,318.114410 
	C522.936890,317.129730 522.591980,316.155487 522.576660,315.173462 
	C522.478088,308.851746 522.472900,302.528290 522.327515,296.207916 
	C522.305237,295.239502 521.965088,293.670593 521.349976,293.421570 
	C517.139343,291.716858 513.329041,288.705078 508.433502,289.075439 
	C506.150970,289.248138 503.807953,289.975342 501.607300,289.657013 
	C486.976990,287.540436 472.431091,284.735626 457.753235,283.082306 
	C443.504059,281.477295 429.137421,280.843292 414.807159,280.061768 
	C408.168274,279.699738 401.477417,280.279205 394.840149,279.902466 
	C390.366302,279.648529 385.944977,278.468689 381.500153,277.703033 
	C384.476105,275.143799 390.245026,277.398376 389.994934,271.131897 
	C404.324127,271.094696 418.653259,271.048920 432.982483,271.023346 
	C442.343689,271.006653 451.704926,271.019257 461.534515,271.022217 
	C463.733582,271.348175 465.463440,271.945862 467.195129,271.951263 
	C488.819977,272.018921 510.445038,272.000702 532.539795,272.006653 
	C533.001648,338.023804 532.993835,404.038727 532.976440,470.520813 
z"/>
<path fill="#4FB8FE" opacity="1.000000" stroke="none" 
	d="
M535.638306,337.280243 
	C535.924561,339.371979 535.948059,341.743103 535.937134,344.557190 
	C535.727051,342.519989 535.551270,340.039825 535.638306,337.280243 
z"/>
<path fill="#35E9FE" opacity="1.000000" stroke="none" 
	d="
M597.521179,224.051392 
	C597.989929,224.495636 597.992493,224.921036 597.993896,225.665878 
	C593.692566,225.993118 589.392517,226.004562 585.092407,226.007874 
	C577.035583,226.014099 577.035583,226.012131 576.954346,217.448395 
	C576.958496,171.554062 576.964783,126.103043 577.049805,80.652161 
	C577.053223,78.822784 577.801575,76.994797 578.603882,75.081390 
	C579.004578,75.177917 579.004211,75.359207 579.017090,75.813034 
	C578.715210,79.841484 578.159790,83.596924 578.152283,87.353455 
	C578.144714,91.138199 578.932861,94.923500 578.940857,98.709473 
	C579.017639,135.285492 579.003174,171.861725 579.015564,208.437897 
	C579.016235,210.599213 578.990845,212.761139 579.031982,214.921738 
	C579.191467,223.298935 579.884949,223.985672 588.077271,224.004715 
	C591.069824,224.011673 594.062439,224.023132 597.521179,224.051392 
z"/>
<path fill="#25BFFE" opacity="1.000000" stroke="none" 
	d="
M691.648315,76.863304 
	C691.945984,81.471260 688.000793,79.765480 685.851318,80.909271 
	C685.232849,79.608505 684.614319,78.307739 683.992676,76.615646 
	C686.420349,76.383301 688.851257,76.542282 691.648315,76.863304 
z"/>
<path fill="#25BFFE" opacity="1.000000" stroke="none" 
	d="
M655.609741,76.184036 
	C655.377014,77.140495 654.745605,78.031967 654.114197,78.923431 
	C653.417847,78.265518 652.721558,77.607628 652.009277,76.597847 
	C653.065979,76.203651 654.138550,76.161346 655.609741,76.184036 
z"/>
<path fill="#47D4FE" opacity="1.000000" stroke="none" 
	d="
M699.672852,76.040253 
	C698.631042,76.375412 697.195984,76.688606 695.370911,76.984451 
	C696.413818,76.650826 697.846741,76.334549 699.672852,76.040253 
z"/>
<path fill="#47D4FE" opacity="1.000000" stroke="none" 
	d="
M729.613831,76.017578 
	C728.505432,76.209076 726.973572,76.385773 725.198059,76.303543 
	C726.366394,76.030670 727.778381,76.016724 729.613831,76.017578 
z"/>
<path fill="#47D4FE" opacity="1.000000" stroke="none" 
	d="
M631.800232,76.073227 
	C631.900452,76.509369 631.701477,76.924568 631.502563,77.339775 
	C631.332031,77.085167 631.161438,76.830551 630.946777,76.334122 
	C631.102051,76.078964 631.301514,76.065628 631.800232,76.073227 
z"/>
<path fill="#2EB4FF" opacity="1.000000" stroke="none" 
	d="
M389.530457,271.095917 
	C390.245026,277.398376 384.476105,275.143799 381.500153,277.703033 
	C385.944977,278.468689 390.366302,279.648529 394.840149,279.902466 
	C401.477417,280.279205 408.168274,279.699738 414.807159,280.061768 
	C429.137421,280.843292 443.504059,281.477295 457.753235,283.082306 
	C472.431091,284.735626 486.976990,287.540436 501.607300,289.657013 
	C503.807953,289.975342 506.150970,289.248138 508.433502,289.075439 
	C513.329041,288.705078 517.139343,291.716858 521.349976,293.421570 
	C521.965088,293.670593 522.305237,295.239502 522.327515,296.207916 
	C522.472900,302.528290 522.478088,308.851746 522.576660,315.173462 
	C522.591980,316.155487 522.936890,317.129730 522.983093,318.114410 
	C523.557800,330.359070 524.362915,342.600037 524.599365,354.851776 
	C524.947998,372.917938 524.886658,390.992004 525.000000,409.531342 
	C525.000000,429.157593 525.000000,448.315216 525.000000,467.472809 
	C525.000000,479.819305 524.818359,492.169617 525.080261,504.510559 
	C525.202515,510.269897 526.557861,516.003296 526.676575,521.762390 
	C526.812683,528.366638 526.299927,534.994141 525.796204,541.590698 
	C525.721436,542.570068 524.308228,543.921143 523.243164,544.268066 
	C518.885498,545.687439 514.449768,547.714233 509.994141,547.843872 
	C486.979797,548.513672 463.951324,548.808960 440.925995,548.962830 
	C415.858734,549.130432 390.789429,549.025391 365.721252,548.955688 
	C363.432922,548.949341 361.146301,548.335938 358.430054,548.004639 
	C350.842896,546.978943 343.616669,546.261414 336.573608,544.711731 
	C334.796722,544.320801 332.416565,541.317322 332.340454,539.432556 
	C331.893890,528.374451 331.913574,517.290588 332.046356,506.218567 
	C332.137787,498.597229 332.991364,490.978790 332.935669,483.363190 
	C332.799530,464.751038 332.127838,446.142181 332.044403,427.530334 
	C331.889404,392.947327 331.944458,358.362946 332.044464,323.779510 
	C332.065796,316.407623 332.819519,309.039825 332.926300,301.665649 
	C333.011841,295.759308 332.517670,289.846680 332.490784,283.935883 
	C332.472443,279.899933 332.815704,275.862366 333.008972,271.455017 
	C333.455811,271.075226 333.891022,271.065887 334.676453,271.476624 
	C335.771576,272.590179 336.492340,273.858276 337.265076,273.890808 
	C348.305847,274.355255 359.353546,274.808380 370.399750,274.812012 
	C371.940277,274.812500 373.481598,272.404388 375.022552,271.111206 
	C379.703705,271.094116 384.384857,271.077026 389.530457,271.095917 
z"/>
<path fill="#28C1FE" opacity="1.000000" stroke="none" 
	d="
M374.552551,271.077332 
	C373.481598,272.404388 371.940277,274.812500 370.399750,274.812012 
	C359.353546,274.808380 348.305847,274.355255 337.265076,273.890808 
	C336.492340,273.858276 335.771576,272.590179 335.002960,271.490356 
	C348.013702,271.070496 361.048126,271.057007 374.552551,271.077332 
z"/>
</svg>